mastitorrents.com
 
http://mastitorrents.com/forums/index.php

General

Format : AVI
Format/Info : Audio Video Interleave
File size : 759 MiB
Duration : 2h 21mn
Overall bit rate : 752 Kbps
Writing application : MEncoder SVN-r30881(20100311-gcc4.3.3)
Writing library : MPlayer


Video

ID : 0
Format : MPEG-4 Visual
Format profile : Advanced Simple@L5
Format settings, BVOP : 2
Format settings, QPel : No
Format settings, GMC : No warppoints
Format settings, Matrix : Default (H.263)
Codec ID : XVID
Codec ID/Hint : XviD
Duration : 2h 21mn
Bit rate : 612 Kbps
Width : 640 pixels
Height : 284 pixels
Display aspect ratio : 2.25:1
Frame rate : 25.000 fps
Color space : YUV
Chroma subsampling : 4:2:0
Bit depth : 8 bits
Scan type : Progressive
Compression mode : Lossy
Bits/(Pixel*Frame) : 0.135
Stream size : 618 MiB (81%)
Writing library : XviD 1.2.1 (UTC 2008-12-04)


Audio

ID : 1
Format : MPEG Audio
Format version : Version 1
Format profile : Layer 3
Mode : Joint stereo
Mode extension : MS Stereo
Codec ID : 55
Codec ID/Hint : MP3
Duration : 2h 21mn
Bit rate mode : Constant
Bit rate : 128 Kbps
Channel(s) : 2 channels
Sampling rate : 44.1 KHz
Compression mode : Lossy
Delay relative to video : 40ms
Stream size : 129 MiB (17%)
Alignment : Aligned on interleaves
Interleave, duration : 26 ms (0.65 video frame)
Interleave, preload duration : 522 ms
Writing library : LAME3.98
Language : Hindi